<svg xmlns="http://www.w3.org/2000/svg" width="13.612" height="17" viewBox="0 0 13.612 17"><defs><style>.a{fill:#0783ff;}</style></defs><g transform="translate(0 0)"><path class="a" d="M913.282,242.738c0,2.193,0,4.387,0,6.58a1.932,1.932,0,0,1-.519,1.4,1.6,1.6,0,0,1-1.024.477,3.057,3.057,0,0,1-.325.014q-4.932,0-9.865,0a1.655,1.655,0,0,1-1.655-.919,2.253,2.253,0,0,1-.213-.939q-.02-6.639-.008-13.279a1.735,1.735,0,0,1,1.848-1.861q4.962-.006,9.924,0a1.739,1.739,0,0,1,1.833,1.849C913.285,238.292,913.282,240.515,913.282,242.738Zm-11.893.013c0,2.154,0,4.307,0,6.461,0,.237.049.321.307.321q4.754-.014,9.509,0c.289,0,.389-.063.388-.375q-.016-6.432,0-12.863c0-.282-.075-.371-.363-.371q-4.754.014-9.509,0c-.261,0-.333.075-.331.335C901.393,238.424,901.388,240.588,901.389,242.751Z" transform="translate(-899.672 -234.217)"/><path class="a" d="M921.264,288.584a4.242,4.242,0,1,1,4.244,4.261A4.248,4.248,0,0,1,921.264,288.584Zm1.916.878a2.438,2.438,0,0,0,4.636,0Zm4.65-1.761a2.456,2.456,0,0,0-4.657,0Z" transform="translate(-918.694 -278.382)"/><path class="a" d="M921.367,256.663a.791.791,0,0,1,.837-.834.825.825,0,0,1,.836.851.889.889,0,0,1-.854.825A.846.846,0,0,1,921.367,256.663Z" transform="translate(-918.787 -253.258)"/><path class="a" d="M943.488,255.831a.806.806,0,0,1,.85.823.854.854,0,0,1-.84.852.872.872,0,0,1-.841-.828A.817.817,0,0,1,943.488,255.831Z" transform="translate(-937.544 -253.26)"/></g></svg>