<svg xmlns="http://www.w3.org/2000/svg" width="49.001" height="48.998" viewBox="0 0 49.001 48.998"><defs><style>.a{fill:#0783ff;}</style></defs><g transform="translate(0)"><g transform="translate(0 0)"><path class="a" d="M649.557,255.72v5.65h-.728c-6.836,0-13.672-.011-20.508.009a2.828,2.828,0,0,1-2.881-1.546,4.333,4.333,0,0,1-.337-1.787q-.028-17.338-.014-34.677c0-1.377-.007-2.753,0-4.13a2.849,2.849,0,0,1,3.113-3.089q14.776-.007,29.552,0a2.827,2.827,0,0,1,3.139,2.927c.047,3.275.014,6.551.011,9.826a2.564,2.564,0,0,1-.061.378h-3.707V228.5q0-3.6,0-7.192c0-1.087-.269-1.38-1.327-1.38q-12.817-.007-25.635,0c-1.031,0-1.308.283-1.308,1.328q-.006,16.556,0,33.111c0,1.1.28,1.354,1.425,1.355q9.186,0,18.372,0Zm-6.578,4.456a1.663,1.663,0,0,0,1.733-1.608,1.774,1.774,0,0,0-1.694-1.68,1.68,1.68,0,0,0-1.707,1.635A1.615,1.615,0,0,0,642.978,260.176Zm.042-42.762v0a7.368,7.368,0,0,0-1.418.027.817.817,0,0,0-.533.579.806.806,0,0,0,.5.614,19.8,19.8,0,0,0,2.84,0c.208-.015.5-.413.535-.663.02-.163-.343-.492-.577-.54A6.822,6.822,0,0,0,643.02,217.414Z" transform="translate(-625.086 -216.147)"/><path class="a" d="M740.057,285.881q0,6.8,0,13.593c0,2.281-1.076,3.369-3.333,3.37q-7.972,0-15.943,0c-2.291,0-3.347-1.059-3.347-3.361q0-13.593,0-27.187c0-2.308,1.055-3.373,3.338-3.374q7.971,0,15.942,0c2.269,0,3.342,1.082,3.343,3.366Q740.058,279.084,740.057,285.881Zm-18.826-.98q0,5.445,0,10.89c0,1.172.2,1.378,1.355,1.379q6.157,0,12.314,0c1.135,0,1.379-.24,1.38-1.378q0-10.819,0-21.638c0-1.224-.255-1.48-1.449-1.48q-6.086,0-12.172,0c-1.184,0-1.427.239-1.427,1.409Q721.228,279.491,721.231,284.9Zm5.84,15.111a1.677,1.677,0,0,0,3.353.011,1.677,1.677,0,0,0-3.353-.011Zm1.692-28.528c.379,0,.758,0,1.136,0,.462,0,.864-.227.8-.682a1.039,1.039,0,0,0-.76-.613,19.012,19.012,0,0,0-2.411-.022c-.412.009-.766.154-.744.659.02.48.355.637.773.654C727.958,271.5,728.36,271.483,728.763,271.484Z" transform="translate(-691.056 -253.847)"/></g></g></svg>