<svg xmlns="http://www.w3.org/2000/svg" width="66.588" height="60.46" viewBox="0 0 66.588 60.46"><defs><style>.a{fill:#0783ff;}</style></defs><g transform="translate(0 0)"><path class="a" d="M310.647,579.327c-8.586,0-17.173-.107-25.757.04-4.971.085-7.462-3.475-7.442-7.421.059-11.485.028-22.971.007-34.456a2.264,2.264,0,0,1,1-2.041q10.725-8.021,21.385-16.127a1.311,1.311,0,0,1,1.906.028c2.53,1.973,5.122,3.864,7.653,5.835a1.254,1.254,0,0,0,1.737.063c2.873-1.959,5.792-3.851,8.658-5.82a1.478,1.478,0,0,1,2.042.016q10.526,8,21.115,15.908A2.331,2.331,0,0,1,344,537.466c-.034,11.408-.13,22.818.032,34.223.064,4.485-2.8,7.809-7.747,7.693C327.745,579.181,319.194,579.327,310.647,579.327Zm-26.526-23.18c0,5.142.022,10.283-.02,15.425-.007.93.289,1.188,1.19,1.185q15.486-.037,30.971,0c.945,0,1.156-.3,1.153-1.192-.029-10.361-.006-20.722-.053-31.083a2.331,2.331,0,0,0-.8-1.611c-4.966-3.81-9.984-7.552-14.97-11.338a1.125,1.125,0,0,0-1.617.018q-7.429,5.647-14.915,11.218a2.15,2.15,0,0,0-.95,1.947C284.138,545.862,284.121,551,284.121,556.146Zm39.967-10.062h6.653c0,2.066-.012,3.954.007,5.843.006.639-.323.769-.872.762-1.469-.02-2.942.06-4.4-.03-1.156-.072-1.478.37-1.4,1.463a28.32,28.32,0,0,1,0,3.823c-.072,1.078.215,1.527,1.384,1.442,1.422-.1,2.858,0,4.288-.029.736-.013,1.035.269,1.016,1.025-.038,1.545-.049,3.093,0,4.637.03.9-.372,1.115-1.184,1.1-1.771-.04-3.545-.012-5.4-.012v6.558h13.081c.069-.146.13-.214.13-.282q.012-16.115-.008-32.229a1.532,1.532,0,0,0-.541-1.058q-7.746-5.892-15.545-11.718c-.245-.183-.725-.381-.91-.268-1.462.891-2.878,1.856-4.415,2.869.427.379.665.621.932.823,1.911,1.444,3.792,2.93,5.756,4.3a2.98,2.98,0,0,1,1.468,2.865C324.008,540.579,324.088,543.2,324.088,546.084Z" transform="translate(-277.448 -518.925)"/><path class="a" d="M341.227,583.927c-2.059,0-3.91.028-5.758-.03-.274-.008-.759-.417-.767-.653-.063-1.922-.035-3.847-.035-5.864h6.56Z" transform="translate(-308.03 -550.171)"/><path class="a" d="M306.207,577.231c2.09,0,4.083-.024,6.074.036.2.006.555.5.564.78.053,1.656.064,3.316-.011,4.97a1.139,1.139,0,0,1-.78.792c-1.693.075-3.392.063-5.087.01-.259-.008-.721-.37-.727-.578C306.184,581.284,306.207,579.325,306.207,577.231Z" transform="translate(-292.818 -550.089)"/><path class="a" d="M309.415,612.494c-3.3,0-3.315,0-3.3-3.316.005-1.069-.327-2.583.228-3.089.637-.58,2.088-.318,3.187-.327,3.246-.028,3.246-.01,3.246,3.189,0,.81-.032,1.621.008,2.428.043.863-.334,1.178-1.172,1.124C310.882,612.456,310.147,612.494,309.415,612.494Z" transform="translate(-292.722 -565.315)"/><path class="a" d="M341.3,609.149a19.784,19.784,0,0,1-.036,2.547,1.162,1.162,0,0,1-.776.8c-1.659.077-3.325.078-4.985,0a1.16,1.16,0,0,1-.822-.775c-.078-1.7-.077-3.4,0-5.1a1.152,1.152,0,0,1,.8-.79c1.659-.076,3.324-.024,4.986-.042.661-.008.879.283.846.921C341.273,607.524,341.3,608.337,341.3,609.149Z" transform="translate(-308.013 -565.358)"/></g></svg>