<svg xmlns="http://www.w3.org/2000/svg" width="78.58" height="55.676" viewBox="0 0 78.58 55.676"><defs><style>.a{fill:#0783ff;}</style></defs><g transform="translate(-145.117 -400.514)"><g transform="translate(145.117 400.514)"><path class="a" d="M207.22,449.782v6.408h-6.413v-6.44H167.991v6.414h-6.527v-6.646a13.605,13.605,0,0,1-6.545-3.2,11.433,11.433,0,0,1-3.154-4.274c-2.081-5.191-4.385-10.311-6.13-15.614-2.2-6.7,2.917-13.034,9.952-12.715a21.468,21.468,0,0,1,2.519.425c0-.978,0-1.945,0-2.912.006-6.531,4.188-10.709,10.727-10.711q15.534,0,31.069,0c6.514,0,10.684,4.2,10.688,10.749,0,.947,0,1.895,0,2.908.947-.154,1.79-.362,2.642-.42a9.626,9.626,0,0,1,9.959,12.567c-1.758,5.22-4.064,10.254-6.1,15.382a12.041,12.041,0,0,1-5.114,5.959A41.6,41.6,0,0,1,207.22,449.782Zm-22.852-42.674c-5.405,0-10.811-.012-16.216.006a3.252,3.252,0,0,0-3.455,3.427c-.019,1.066.089,2.142-.02,3.2a27.414,27.414,0,0,0,2.957,15.307,1.419,1.419,0,0,0,1.509.976c5.366-.03,10.734-.016,16.1-.016,4.8,0,9.592.013,14.388-.022.4,0,1.049-.223,1.175-.516,1.757-4.1,3.86-8.094,3.232-12.833a43.372,43.372,0,0,1-.04-5.592c0-2.747-1.205-3.933-3.986-3.934Q192.191,407.1,184.368,407.107Zm-.017,36.08q10.052,0,20.1,0c2.838-.005,5.245-.984,6.42-3.7,2.11-4.887,4.069-9.841,6.031-14.79a3.336,3.336,0,0,0-.985-3.739,2.78,2.78,0,0,0-3.49-.294,5.379,5.379,0,0,0-1.782,2.253c-1.812,4.229-3.534,8.5-5.23,12.773a1.254,1.254,0,0,1-1.4.934q-19.7-.036-39.409,0a1.188,1.188,0,0,1-1.316-.894c-1.631-4.139-3.31-8.259-4.981-12.382a9.649,9.649,0,0,0-.687-1.439,3.248,3.248,0,0,0-3.836-1.479,3.213,3.213,0,0,0-2.045,3.562,7.121,7.121,0,0,0,.476,1.637q2.432,6.159,4.894,12.307c1.59,3.993,3.449,5.262,7.707,5.262Z" transform="translate(-145.117 -400.514)"/></g></g></svg>