<svg xmlns="http://www.w3.org/2000/svg" width="14.908" height="14.935" viewBox="0 0 14.908 14.935"><defs><style>.a{fill:#fff;}</style></defs><g transform="translate(0 0)"><path class="a" d="M687.248,405.45a1.393,1.393,0,0,0-1.248.811,1.293,1.293,0,0,0,.121,1.415.672.672,0,0,1,.119.374q.01,4.9,0,9.792a.644.644,0,0,1-.108.351,1.351,1.351,0,0,0,.134,1.814,1.4,1.4,0,0,0,1.757.126.861.861,0,0,1,.448-.139q4.827-.012,9.654,0a.891.891,0,0,1,.469.157,1.41,1.41,0,0,0,1.774-.189,1.35,1.35,0,0,0,.125-1.732.786.786,0,0,1-.144-.447q-.012-4.841,0-9.682a.845.845,0,0,1,.145-.447,1.365,1.365,0,0,0-.161-1.772,1.423,1.423,0,0,0-1.738-.155.97.97,0,0,1-.5.155q-4.8.013-9.6,0a1.715,1.715,0,0,1-.525-.161C687.73,405.636,687.49,405.541,687.248,405.45Z" transform="translate(-685.845 -405.45)"/><path d="M687.248,405.45c.242.091.482.186.726.272a1.715,1.715,0,0,0,.525.161q4.8.015,9.6,0a.97.97,0,0,0,.5-.155,1.423,1.423,0,0,1,1.738.155,1.365,1.365,0,0,1,.161,1.772.845.845,0,0,0-.145.447q-.012,4.841,0,9.682a.786.786,0,0,0,.144.447,1.35,1.35,0,0,1-.125,1.732,1.41,1.41,0,0,1-1.774.189.891.891,0,0,0-.469-.157q-4.827-.013-9.654,0a.861.861,0,0,0-.448.139,1.4,1.4,0,0,1-1.757-.126,1.351,1.351,0,0,1-.134-1.814.644.644,0,0,0,.108-.351q.009-4.9,0-9.792a.672.672,0,0,0-.119-.374,1.293,1.293,0,0,1-.121-1.415A1.393,1.393,0,0,1,687.248,405.45Zm6.05,12.981c1.431,0,2.861-.005,4.292,0,.329,0,.641.017.8-.351a.251.251,0,0,1,.121-.107c.248-.115.275-.319.275-.566q-.01-4.4,0-8.8c0-.318-.012-.594-.341-.752a.366.366,0,0,1-.141-.163.5.5,0,0,0-.521-.254q-4.36.01-8.72,0c-.351,0-.7-.037-.872.374-.018.044-.079.076-.127.1a.542.542,0,0,0-.274.568q.012,4.347,0,8.695c0,.352-.03.7.372.874a.268.268,0,0,1,.1.123.521.521,0,0,0,.544.263C690.309,418.427,691.8,418.431,693.3,418.431Z" transform="translate(-685.845 -405.45)"/><path d="M721.094,438.129c.738,0,1.477,0,2.216,0,.491,0,.728.224.73.714q.009,2.229,0,4.459a.646.646,0,0,1-.715.716q-2.229.008-4.458,0c-.491,0-.715-.238-.715-.729q0-2.23,0-4.459c0-.489.211-.7.7-.7C719.6,438.126,720.346,438.129,721.094,438.129Z" transform="translate(-714.616 -434.554)"/><path d="M740.294,460.775c0-.7,0-1.354,0-2.009,0-.811,0-1.623,0-2.434,0-.186.049-.274.246-.256.127.012.255,0,.383.005a.536.536,0,0,1,.53.547c.011.419,0,.839,0,1.258q0,1.668,0,3.337c0,.533-.174.712-.7.712q-2.228,0-4.457,0a.731.731,0,0,1-.69-1.059c.03-.063.181-.1.277-.1,1.349-.006,2.7,0,4.047,0Z" transform="translate(-730.097 -450.537)"/></g></svg>