<svg xmlns="http://www.w3.org/2000/svg" width="12.518" height="14.727" viewBox="0 0 12.518 14.727"><g transform="translate(-1005.035 -326.342)"><g transform="translate(1005.035 326.342)"><path d="M1011.306,326.342a6.278,6.278,0,0,1,6.063,4.8,6.113,6.113,0,0,1-1.462,5.675c-1.075,1.23-2.208,2.41-3.294,3.631a1.707,1.707,0,0,1-2.6.037c-.952-1.031-1.892-2.073-2.838-3.109a8.462,8.462,0,0,1-1.469-1.966,6.254,6.254,0,0,1,2.44-8.215A6.566,6.566,0,0,1,1011.306,326.342Zm-.036,8.088a1.832,1.832,0,1,0-1.813-1.889A1.817,1.817,0,0,0,1011.27,334.429Z" transform="translate(-1005.035 -326.342)"/></g></g></svg>