<svg xmlns="http://www.w3.org/2000/svg" width="19.724" height="14.774" viewBox="0 0 19.724 14.774"><g transform="translate(-308.81 -116.691)"><path d="M328.548,116.7c1.821,0,3.644.035,5.464-.011a2.877,2.877,0,0,1,2.967,2.86c.008.368,0,.737.007,1.105,0,.182-.066.24-.249.261a2.76,2.76,0,0,0-2.508,2.211,8.239,8.239,0,0,0-.056,1.589c-.007.413,0,.413-.426.413q-5.265,0-10.53.006c-.258,0-.332-.077-.337-.329a8.345,8.345,0,0,0-.11-1.8,2.654,2.654,0,0,0-2.375-2.081c-.264-.039-.344-.133-.333-.388a6.358,6.358,0,0,1,.179-2,2.86,2.86,0,0,1,2.6-1.832Q325.693,116.7,328.548,116.7Z" transform="translate(-9.869 0)"/><path d="M318.659,170.374c-2.712,0-5.424,0-8.135-.006-.262,0-.351.085-.329.335a2.544,2.544,0,0,1-.006.4.636.636,0,0,1-.692.654.62.62,0,0,1-.674-.668c-.011-1.617-.008-3.234-.009-4.85,0-.737.02-1.474,0-2.21a1.4,1.4,0,0,1,2.792-.06c.032.838.024,1.678.011,2.517,0,.28.075.367.362.367q6.662-.012,13.324-.006c.4,0,.4,0,.4-.415,0-.768-.007-1.535,0-2.3a1.4,1.4,0,0,1,2.725-.526,2.706,2.706,0,0,1,.1.7q.011,3.254,0,6.508a2,2,0,0,1-.047.425.69.69,0,0,1-1.356-.082,2.971,2.971,0,0,1-.011-.521c.015-.2-.056-.259-.261-.258-1.555.009-3.111.005-4.666.005Z" transform="translate(0 -40.293)"/></g></svg>