<svg xmlns="http://www.w3.org/2000/svg" width="31.141" height="24.299" viewBox="0 0 31.141 24.299"><defs><style>.a{fill:#0783ff;}</style></defs><path class="a" d="M-13.786-76.544a3.94,3.94,0,0,1,2.489-1.72,3.037,3.037,0,0,1,2.263.5,2.65,2.65,0,0,1,1.086,1.992,3.958,3.958,0,0,1-1.132,2.852,14.76,14.76,0,0,0-1.856,2.852,11.545,11.545,0,0,0-.951,2.761,7.129,7.129,0,0,1,4.617,2.037,6.4,6.4,0,0,1,1.72,4.662,6.522,6.522,0,0,1-1.811,4.753A6.516,6.516,0,0,1-12.247-54a6.132,6.132,0,0,1-4.979-2.173,9.207,9.207,0,0,1-1.811-6.065A24.444,24.444,0,0,1-18-69.075,21.732,21.732,0,0,1-13.786-76.544Zm17.652,0a3.94,3.94,0,0,1,2.489-1.72,3.037,3.037,0,0,1,2.263.5,2.65,2.65,0,0,1,1.086,1.992,3.958,3.958,0,0,1-1.132,2.852,14.76,14.76,0,0,0-1.856,2.852,11.545,11.545,0,0,0-.951,2.761,7.129,7.129,0,0,1,4.617,2.037,6.4,6.4,0,0,1,1.72,4.662,6.522,6.522,0,0,1-1.811,4.753A6.516,6.516,0,0,1,5.405-54,6.132,6.132,0,0,1,.426-56.175a9.207,9.207,0,0,1-1.811-6.065A24.444,24.444,0,0,1-.343-69.075,21.732,21.732,0,0,1,3.866-76.544Z" transform="translate(19.036 78.302)"/></svg>