<svg xmlns="http://www.w3.org/2000/svg" width="53.139" height="60.46" viewBox="0 0 53.139 60.46"><defs><style>.a{fill:#0783ff;}</style></defs><g transform="translate(0 0)"><path class="a" d="M443.35,257.544h13.907c3.34,0,5.391,2,5.413,5.346.028,4.282.036,8.565-.015,12.846-.011.934.243,1.183,1.172,1.171,4.07-.051,8.141-.04,12.211-.005.779.007,1.021-.212,1.02-1.006q-.033-19.954,0-39.907a.958.958,0,0,0-.836-1.086c-6.043-1.789-12.075-3.615-18.122-5.389-1.333-.391-2.711-.638-4.076-.912-.835-.167-1.059.236-1.055,1.063.032,7.2.019,14.391.018,21.586,0,1.45,0,1.45-1.427,1.449h-3.326c-.035-.326-.087-.59-.088-.855q-.006-11.319,0-22.639c0-3.576,1.9-5.357,5.447-5.485,2.982-.108,5.595,1.174,8.36,1.878,1.784.455,3.535,1.043,5.572,1.652,0-1.352-.02-2.523.006-3.694a2.242,2.242,0,0,1,1.69-2.155,2.087,2.087,0,0,1,2.441.779,5.238,5.238,0,0,1,.674,2.266,27.2,27.2,0,0,1,.017,3.472c-.02.582.131.878.746,1.03,1.27.312,2.516.723,3.941,1.143,0-1.62-.018-3.017.007-4.413a16.289,16.289,0,0,1,.163-2.3,2.273,2.273,0,0,1,2.48-2.051,2.342,2.342,0,0,1,2.225,2.365c.056,1.367.017,2.737.018,4.106,0,3.124.024,6.248-.016,9.372-.01.783.215,1.023,1.01,1.016a34.9,34.9,0,0,1,4.72.179,4.444,4.444,0,0,1,3.818,3.8,11.433,11.433,0,0,1,.151,1.884c.008,12.109,0,24.218.027,36.328,0,1.024-.214,1.379-1.325,1.376q-25.213-.056-50.426-.026h-1.325c-.025-.439-.061-.776-.061-1.113q-.005-13.741,0-27.482c0-1.757.824-2.75,2.3-2.788,1.524-.038,2.475.97,2.535,2.72.025.736.008,1.474.009,2.211C443.35,255.975,443.35,256.674,443.35,257.544Zm43.382-12.117c0-2.419,0-2.419-2.413-2.419-2.383,0-2.383,0-2.383,2.354,0,2.492,0,2.492,2.421,2.492C486.731,247.853,486.731,247.853,486.731,245.427Zm-2.446,12.117c2.446,0,2.446,0,2.446-2.459,0-2.386,0-2.386-2.342-2.386-2.454,0-2.454,0-2.454,2.492C481.935,257.544,481.935,257.544,484.285,257.544Zm-31.3,4.807c0,1.51-.027,2.867.028,4.22a.861.861,0,0,0,.592.594,28.377,28.377,0,0,0,3.452,0,1.06,1.06,0,0,0,.735-.716,27.968,27.968,0,0,0,.006-3.453.878.878,0,0,0-.6-.613C455.852,262.323,454.495,262.351,452.988,262.351Zm28.948.065c0,1.429-.04,2.723.032,4.011a1.035,1.035,0,0,0,.685.733,25.237,25.237,0,0,0,3.357.006.954.954,0,0,0,.688-.616c.065-1.353.032-2.711.032-4.135Zm-28.948,9.625c0,1.491.019,2.815-.009,4.137-.012.566.23.725.751.714q1.623-.034,3.247,0c.629.013.877-.255.862-.878-.025-1.082.032-2.167-.038-3.245a.962.962,0,0,0-.616-.7C455.834,272.009,454.478,272.041,452.988,272.041Zm33.742.072h-4.793c0,1.431-.028,2.789.029,4.144a.882.882,0,0,0,.614.6,30.856,30.856,0,0,0,3.464,0,.948.948,0,0,0,.656-.648C486.763,274.885,486.731,273.557,486.731,272.114Zm-43.343-4.92c1.437,0,2.758.036,4.075-.033a.985.985,0,0,0,.648-.7,33.1,33.1,0,0,0,.008-3.456c-.009-.221-.309-.609-.486-.616-1.412-.051-2.826-.029-4.245-.029Zm-.005,9.692c1.423,0,2.743.035,4.057-.032a.982.982,0,0,0,.669-.681,33.191,33.191,0,0,0,.011-3.456c-.009-.227-.3-.628-.465-.634-1.413-.052-2.83-.03-4.272-.03Z" transform="translate(-438.505 -221.296)"/><path class="a" d="M484.266,266.063c0-1.508-.028-2.869.029-4.226a.882.882,0,0,1,.623-.59,30.457,30.457,0,0,1,3.463,0,.98.98,0,0,1,.69.654,27.643,27.643,0,0,1,0,3.463.972.972,0,0,1-.672.664C487.079,266.1,485.753,266.063,484.266,266.063Z" transform="translate(-464.937 -244.348)"/><path class="a" d="M507.221,266.058c0-1.518-.027-2.91.032-4.3.008-.192.439-.51.687-.522a27.005,27.005,0,0,1,3.358.01,1.058,1.058,0,0,1,.724.725,22.756,22.756,0,0,1,0,3.357,1.05,1.05,0,0,1-.741.7C509.991,266.1,508.7,266.058,507.221,266.058Z" transform="translate(-478.199 -244.343)"/><path class="a" d="M484.265,289.011c0-1.5-.028-2.858.028-4.214a.882.882,0,0,1,.612-.6,30.4,30.4,0,0,1,3.463,0,.982.982,0,0,1,.7.644,27.59,27.59,0,0,1,0,3.463.972.972,0,0,1-.662.674C487.089,289.046,485.762,289.011,484.265,289.011Z" transform="translate(-464.937 -257.605)"/><path class="a" d="M507.215,289.005c0-1.5-.027-2.893.031-4.28.008-.2.429-.527.672-.539a26.971,26.971,0,0,1,3.358.008,1.059,1.059,0,0,1,.74.708,24.52,24.52,0,0,1,.006,3.358c-.016.26-.4.7-.625.712C510.047,289.04,508.69,289.005,507.215,289.005Z" transform="translate(-478.196 -257.6)"/><path class="a" d="M507.206,330.008c1.506,0,2.927-.022,4.345.029.173.006.465.4.474.625a30.164,30.164,0,0,1-.014,3.453,1.062,1.062,0,0,1-.755.694,25.288,25.288,0,0,1-3.347,0,.939.939,0,0,1-.67-.616C507.174,332.844,507.206,331.489,507.206,330.008Z" transform="translate(-478.189 -284.096)"/><path class="a" d="M507.219,309.53c0-2.4,0-2.4,2.44-2.4,2.4,0,2.4,0,2.4,2.368,0,2.435,0,2.435-2.441,2.435C507.219,311.934,507.219,311.934,507.219,309.53Z" transform="translate(-478.201 -270.883)"/></g></svg>