<svg xmlns="http://www.w3.org/2000/svg" width="17.001" height="17" viewBox="0 0 17.001 17"><defs><style>.a{fill:#0783ff;}</style></defs><g transform="translate(0)"><g transform="translate(0 0)"><path class="a" d="M633.576,229.877v1.96h-.253c-2.372,0-4.744,0-7.115,0a.981.981,0,0,1-1-.536,1.5,1.5,0,0,1-.117-.62q-.01-6.016,0-12.031c0-.478,0-.955,0-1.433a.988.988,0,0,1,1.08-1.072q5.127,0,10.253,0a.981.981,0,0,1,1.089,1.015c.016,1.136,0,2.273,0,3.409a.891.891,0,0,1-.021.131h-1.286v-.272q0-1.248,0-2.5c0-.377-.093-.479-.46-.479q-4.447,0-8.894,0c-.358,0-.454.1-.454.461q0,5.744,0,11.488c0,.38.1.47.495.47h6.684Zm-2.282,1.546a.577.577,0,0,0,.6-.558.615.615,0,0,0-.588-.583.583.583,0,0,0-.592.567A.56.56,0,0,0,631.294,231.423Zm.014-14.836h0a2.555,2.555,0,0,0-.492.01.283.283,0,0,0-.185.2.279.279,0,0,0,.173.213,6.872,6.872,0,0,0,.985,0c.072-.005.175-.143.186-.23.007-.056-.119-.171-.2-.187A2.367,2.367,0,0,0,631.308,216.587Z" transform="translate(-625.086 -216.147)"/><path class="a" d="M725.282,274.805q0,2.358,0,4.716a1.019,1.019,0,0,1-1.156,1.169h-5.531a1.013,1.013,0,0,1-1.161-1.166q0-4.716,0-9.432c0-.8.366-1.17,1.158-1.171h5.531a1.018,1.018,0,0,1,1.16,1.168Q725.282,272.447,725.282,274.805Zm-6.532-.34q0,1.889,0,3.778c0,.407.07.478.47.478h4.272c.394,0,.479-.083.479-.478q0-3.754,0-7.507c0-.425-.088-.513-.5-.514h-4.223c-.411,0-.495.083-.5.489Q718.749,272.588,718.75,274.465Zm2.026,5.243a.582.582,0,0,0,1.163,0,.582.582,0,0,0-1.163,0Zm.587-9.9c.131,0,.263,0,.394,0,.16,0,.3-.079.277-.237a.36.36,0,0,0-.264-.213,6.6,6.6,0,0,0-.836-.008c-.143,0-.266.053-.258.229s.123.221.268.227S721.224,269.81,721.364,269.81Z" transform="translate(-708.281 -263.691)"/></g></g></svg>