<svg xmlns="http://www.w3.org/2000/svg" width="226" height="48" viewBox="0 0 226 48"><defs><style>.a{font-size:29px;font-family:Muli-Bold, Muli;font-weight:700;}.b{font-size:15px;font-family:Muli-Regular, Muli;letter-spacing:0.26em;}.c{fill:#0783ff;}.d{fill:#fff;}</style></defs><g transform="translate(-377 -4)"><text class="a" transform="translate(509 33)"><tspan x="-93.104" y="0">Jamal al bahr</tspan></text><text class="b" transform="translate(496 48)"><tspan x="-80.228" y="0">general trading</tspan></text><circle class="c" cx="17" cy="17" r="17" transform="translate(377 14)"/><g transform="translate(0 -1)"><path class="d" d="M-2.684-16.687a3.815,3.815,0,0,1,.338.705,2.327,2.327,0,0,1,.164.821,2.552,2.552,0,0,1-.357,1.333,3.454,3.454,0,0,1-.918,1.014,4.494,4.494,0,0,1-1.246.647,4.234,4.234,0,0,1-1.362.232,2.578,2.578,0,0,1-1.072-.222,2.673,2.673,0,0,1-.85-.6,2.771,2.771,0,0,1-.56-.879,2.811,2.811,0,0,1-.2-1.063,3.185,3.185,0,0,1,.531-1.816A5.019,5.019,0,0,1-6.8-17.894a9.066,9.066,0,0,1,2.068-1,21.488,21.488,0,0,1,2.483-.686q1.3-.28,2.647-.435t2.56-.232q1.217-.077,2.242-.1t1.681-.019a2.164,2.164,0,0,0,.425-.058q.271-.058.56-.116t.551-.116a2.027,2.027,0,0,1,.415-.058q.657,0,.657.348a.374.374,0,0,1-.213.348,1.218,1.218,0,0,1-.58.116,4.653,4.653,0,0,1-.705-.058q-.377-.058-.744-.1a3.65,3.65,0,0,0-.773.242,5.743,5.743,0,0,0-1.121.638A9.017,9.017,0,0,0,4.06-18.03,9.831,9.831,0,0,0,2.765-16.3Q.678-12.822-.472-10.793T-2.008-8.107A8.314,8.314,0,0,0,1.2-9.527a12.782,12.782,0,0,0,2.57-2.541l.174.077a14.018,14.018,0,0,1-1,1.208,10.416,10.416,0,0,1-1.324,1.2A10.173,10.173,0,0,1-.066-8.552a9.064,9.064,0,0,1-2.077.715A19.515,19.515,0,0,1-4.075-5.151a13.489,13.489,0,0,1-2.3,2.135,10.5,10.5,0,0,1-2.638,1.4,8.663,8.663,0,0,1-2.947.5,5.685,5.685,0,0,1-1.217-.135,3.6,3.6,0,0,1-1.111-.435,2.451,2.451,0,0,1-.8-.783A2.142,2.142,0,0,1-15.4-3.643a2.015,2.015,0,0,1,.464-1.343A3.524,3.524,0,0,1-13.65-5.9a9.818,9.818,0,0,1,1.961-.609q1.14-.242,2.473-.435,1.43-.213,2.531-.348T-5-7.566q.58-.928,1.111-1.884l1.072-1.932q.541-.976,1.121-1.932T-.481-15.16a13.4,13.4,0,0,1,3.449-3.382,10.808,10.808,0,0,1,3.778-1.546v-.039q-.309,0-1.053.01t-1.749.077q-1,.068-2.174.2a23.2,23.2,0,0,0-2.348.4,18.617,18.617,0,0,0-2.28.657,8.426,8.426,0,0,0-1.942.976,4.945,4.945,0,0,0-1.353,1.362,3.225,3.225,0,0,0-.512,1.807,1.8,1.8,0,0,0,.541,1.4,2.014,2.014,0,0,0,1.411.493,1.937,1.937,0,0,0,.86-.2,2.523,2.523,0,0,0,.734-.541,2.662,2.662,0,0,0,.512-.792,2.371,2.371,0,0,0,.193-.937,2.794,2.794,0,0,0-.425-1.333ZM-13.312-3.3a1.908,1.908,0,0,0,.541,1.411,1.933,1.933,0,0,0,1.43.541,3.632,3.632,0,0,0,2.077-.618A7.729,7.729,0,0,0-7.6-3.489,15.344,15.344,0,0,0-6.249-5.431Q-5.641-6.465-5.1-7.3q-.715.116-1.43.213t-1.42.213q-.705.116-1.42.28a11,11,0,0,0-1.43.435,5.852,5.852,0,0,0-.908.435,3.972,3.972,0,0,0-.8.618,3.013,3.013,0,0,0-.58.812A2.233,2.233,0,0,0-13.312-3.3Z" transform="translate(395.232 42.706)"/><path class="d" d="M4.957-16.238q-1.84,2.99-3.2,5.209T-.575-7.222q-.977,1.587-1.587,2.656t-.966,1.771A5.972,5.972,0,0,0-3.6-1.645a2.551,2.551,0,0,0-.092.794.813.813,0,0,0,.9.851A2.733,2.733,0,0,0-1.127-.621,7.412,7.412,0,0,0,.368-2.174a12,12,0,0,0,1.173-1.99,9.967,9.967,0,0,0,.7-1.955Q2.2-6.3,2.151-6.5A1.856,1.856,0,0,1,2.1-6.923,1.814,1.814,0,0,1,2.5-8.038a1.327,1.327,0,0,1,1.127-.517,1.351,1.351,0,0,1,1.069.46,1.968,1.968,0,0,1,.4,1.334,5.155,5.155,0,0,1-.035.529,4.418,4.418,0,0,1-.127.667,3.019,3.019,0,0,0,.632.471,1.943,1.943,0,0,0,.977.219,1.934,1.934,0,0,0,1.219-.391,5.66,5.66,0,0,0,.874-.828l.138.184q-.161.207-.38.437a3.35,3.35,0,0,1-.494.425,2.641,2.641,0,0,1-.621.322A2.261,2.261,0,0,1,6.5-4.6a2.1,2.1,0,0,1-.932-.207,2.231,2.231,0,0,1-.679-.483A7.176,7.176,0,0,1,3.749-3.07,8.539,8.539,0,0,1,1.955-1.3,8.355,8.355,0,0,1-.276-.138,7.506,7.506,0,0,1-2.725.276,3.3,3.3,0,0,1-5.049-.506,2.819,2.819,0,0,1-5.9-2.691a3.093,3.093,0,0,1,.138-.862A7.111,7.111,0,0,1-5.29-4.692q.334-.667.9-1.61T-3-8.59q.828-1.346,1.967-3.174T1.6-16.008Z" transform="translate(400 41)"/></g></g></svg>