<svg xmlns="http://www.w3.org/2000/svg" width="17.548" height="15.677" viewBox="0 0 17.548 15.677"><g transform="translate(0 0)"><path d="M462.908,482.3c-.3,1.346-.557,2.648-.871,3.937a3.1,3.1,0,0,1-2.978,2.3q-4.319.025-8.639,0a3.1,3.1,0,0,1-3-2.543c-.233-1.113-.487-2.221-.731-3.332-.025-.112-.039-.227-.062-.364Z" transform="translate(-445.992 -472.873)"/><path d="M449.581,404.282H441.6c-.481,0-.755-.232-.757-.629a.557.557,0,0,1,.465-.587,9.014,9.014,0,0,1,1.143-.049c.2,0,.266-.057.264-.264-.009-1.276,0-2.551-.006-3.827a2.794,2.794,0,0,1,2.7-2.782,2.831,2.831,0,0,1,2.843,2.217.668.668,0,0,0,.369.511,1.84,1.84,0,0,1,.968,1.438c.031.222-.11.212-.252.212h-1.886c-.447,0-.893-.01-1.339,0-.256.008-.3-.113-.249-.322a1.889,1.889,0,0,1,.988-1.338.284.284,0,0,0,.156-.416,1.549,1.549,0,0,0-1.742-1.043,1.51,1.51,0,0,0-1.286,1.533c-.008,1.276,0,2.551-.009,3.827,0,.255.129.247.307.247q6.56,0,13.121,0a2.383,2.383,0,0,1,.541.055.611.611,0,0,1,.45.611.662.662,0,0,1-.552.595,2.618,2.618,0,0,1-.3.008Z" transform="translate(-440.842 -396.144)"/></g></svg>