<svg xmlns="http://www.w3.org/2000/svg" width="19.97" height="16" viewBox="0 0 19.97 16"><path d="M212.348,441.614c0,.344.006.657,0,.97a.987.987,0,1,1-1.973-.026q0-6.94,0-13.881a.992.992,0,1,1,1.975.005q0,3.243,0,6.487v.4h2.573a2.2,2.2,0,0,1-1.275-.956,1.919,1.919,0,0,1-.221-1.507,1.958,1.958,0,0,1,2.07-1.5,2.007,2.007,0,0,1,1.842,1.662c.18.96-.356,1.782-1.532,2.306h2.563c0-.353-.023-.708,0-1.06a1.963,1.963,0,0,1,2.028-1.916q3.957-.019,7.915,0a1.967,1.967,0,0,1,2.025,2.055q0,3.941,0,7.882a.985.985,0,0,1-.793,1.034.974.974,0,0,1-1.114-.623,1.085,1.085,0,0,1-.065-.371c-.009-.312,0-.624,0-.96Z" transform="translate(-210.372 -427.589)"/></svg>